<svg width="1728" height="4962" viewBox="0 0 1728 4962" fill="none" xmlns="http://www.w3.org/2000/svg">
<g opacity="0.5">
<g opacity="0.9">
<path d="M239.413 3670.96L148.808 3646.68C89.0267 3630.66 27.5793 3666.14 11.561 3725.92L-12.7165 3816.53C-28.8778 3876.84 -90.8735 3912.63 -151.188 3896.47L-241.793 3872.2C-301.574 3856.18 -363.022 3891.65 -379.04 3951.44L-403.317 4042.04C-419.336 4101.82 -383.859 4163.27 -324.078 4179.29L-233.473 4203.56C-173.158 4219.73 -137.365 4281.72 -153.526 4342.04L-177.804 4432.64C-193.822 4492.42 -158.345 4553.87 -98.5644 4569.89L-7.95941 4594.17C51.8216 4610.18 113.269 4574.71 129.287 4514.93L153.565 4424.32C169.726 4364.01 231.722 4328.21 292.036 4344.37L382.641 4368.65C442.422 4384.67 503.87 4349.19 519.888 4289.41L544.166 4198.81C560.184 4139.03 524.707 4077.58 464.926 4061.56L374.321 4037.28C314.007 4021.12 278.213 3959.13 294.375 3898.81L318.652 3808.21C334.67 3748.43 299.194 3686.98 239.413 3670.96Z" stroke="#FB3EE2"/>
<path opacity="0.6" d="M259.746 3706.18L169.141 3681.9C109.36 3665.88 47.9124 3701.36 31.8941 3761.14L7.61659 3851.74C-8.54462 3912.06 -70.5404 3947.85 -130.855 3931.69L-221.46 3907.41C-281.241 3891.4 -342.688 3926.87 -358.707 3986.65L-382.984 4077.26C-399.002 4137.04 -363.526 4198.49 -303.745 4214.5L-213.14 4238.78C-152.825 4254.94 -117.032 4316.94 -133.193 4377.25L-157.471 4467.86C-173.489 4527.64 -138.012 4589.09 -78.2313 4605.11L12.3737 4629.38C72.1548 4645.4 133.602 4609.92 149.621 4550.14L173.898 4459.54C190.059 4399.22 252.055 4363.43 312.369 4379.59L402.975 4403.87C462.756 4419.89 524.203 4384.41 540.221 4324.63L564.499 4234.03C580.517 4174.24 545.04 4112.8 485.259 4096.78L394.654 4072.5C334.34 4056.34 298.547 3994.34 314.708 3934.03L338.985 3843.42C355.004 3783.64 319.527 3722.2 259.746 3706.18Z" stroke="#FB3EE2"/>
<path opacity="0.5" d="M280.079 3741.4L189.474 3717.12C129.693 3701.1 68.2455 3736.58 52.2272 3796.36L27.9497 3886.96C11.7884 3947.28 -50.2073 3983.07 -110.522 3966.91L-201.127 3942.63C-260.908 3926.61 -322.355 3962.09 -338.374 4021.87L-362.651 4112.48C-378.669 4172.26 -343.193 4233.7 -283.412 4249.72L-192.807 4274C-132.492 4290.16 -96.6989 4352.16 -112.86 4412.47L-137.138 4503.08C-153.156 4562.86 -117.679 4624.31 -57.8982 4640.32L32.7068 4664.6C92.4878 4680.62 153.935 4645.14 169.954 4585.36L194.231 4494.76C210.392 4434.44 272.388 4398.65 332.703 4414.81L423.308 4439.09C483.089 4455.11 544.536 4419.63 560.554 4359.85L584.832 4269.24C600.85 4209.46 565.373 4148.02 505.592 4132L414.987 4107.72C354.673 4091.56 318.88 4029.56 335.041 3969.25L359.318 3878.64C375.337 3818.86 339.86 3757.41 280.079 3741.4Z" stroke="#FB3EE2"/>
<path opacity="0.4" d="M300.412 3776.61L209.807 3752.34C150.026 3736.32 88.5786 3771.79 72.5603 3831.58L48.2828 3922.18C32.1216 3982.5 -29.8742 4018.29 -90.1887 4002.13L-180.794 3977.85C-240.575 3961.83 -302.022 3997.31 -318.04 4057.09L-342.318 4147.69C-358.336 4207.48 -322.86 4268.92 -263.079 4284.94L-172.474 4309.22C-112.159 4325.38 -76.3658 4387.38 -92.527 4447.69L-116.805 4538.3C-132.823 4598.08 -97.3461 4659.52 -37.5651 4675.54L53.0399 4699.82C112.821 4715.84 174.268 4680.36 190.287 4620.58L214.564 4529.97C230.725 4469.66 292.721 4433.87 353.036 4450.03L443.641 4474.31C503.422 4490.32 564.869 4454.85 580.887 4395.07L605.165 4304.46C621.183 4244.68 585.707 4183.23 525.926 4167.21L435.321 4142.94C375.006 4126.78 339.213 4064.78 355.374 4004.47L379.652 3913.86C395.67 3854.08 360.193 3792.63 300.412 3776.61Z" stroke="#FB3EE2"/>
<path opacity="0.3" d="M320.745 3811.83L230.14 3787.55C170.359 3771.54 108.912 3807.01 92.8934 3866.79L68.6159 3957.4C52.4546 4017.71 -9.54113 4053.51 -69.8556 4037.35L-160.461 4013.07C-220.242 3997.05 -281.689 4032.53 -297.707 4092.31L-321.985 4182.91C-338.003 4242.69 -302.527 4304.14 -242.745 4320.16L-152.14 4344.44C-91.826 4360.6 -56.0327 4422.59 -72.1939 4482.91L-96.4714 4573.51C-112.49 4633.29 -77.013 4694.74 -17.232 4710.76L73.373 4735.04C133.154 4751.06 194.601 4715.58 210.62 4655.8L234.897 4565.19C251.059 4504.88 313.054 4469.08 373.369 4485.25L463.974 4509.52C523.755 4525.54 585.202 4490.07 601.221 4430.28L625.498 4339.68C641.516 4279.9 606.04 4218.45 546.259 4202.43L455.654 4178.15C395.339 4161.99 359.546 4100 375.707 4039.68L399.985 3949.08C416.003 3889.3 380.526 3827.85 320.745 3811.83Z" stroke="#FB3EE2"/>
<path opacity="0.2" d="M348.078 3960.05L257.473 3935.77C197.692 3919.75 136.245 3955.23 120.226 4015.01L95.9489 4105.62C79.7877 4165.93 17.7919 4201.72 -42.5225 4185.56L-133.128 4161.29C-192.909 4145.27 -254.356 4180.74 -270.374 4240.53L-294.652 4331.13C-310.67 4390.91 -275.193 4452.36 -215.412 4468.38L-124.807 4492.65C-64.4929 4508.82 -28.6996 4570.81 -44.8609 4631.13L-69.1384 4721.73C-85.1567 4781.51 -49.68 4842.96 10.1011 4858.98L100.706 4883.26C160.487 4899.27 221.935 4863.8 237.953 4804.02L262.23 4713.41C278.392 4653.1 340.387 4617.3 400.702 4633.46L491.307 4657.74C551.088 4673.76 612.535 4638.28 628.554 4578.5L652.831 4487.9C668.849 4428.12 633.373 4366.67 573.592 4350.65L482.987 4326.37C422.672 4310.21 386.879 4248.22 403.04 4187.9L427.318 4097.3C443.336 4037.52 407.859 3976.07 348.078 3960.05Z" stroke="#FB3EE2"/>
</g>
<g opacity="0.9">
<path d="M404.413 1345.96L313.808 1321.68C254.027 1305.66 192.579 1341.14 176.561 1400.92L152.283 1491.53C136.122 1551.84 74.1265 1587.63 13.812 1571.47L-76.793 1547.2C-136.574 1531.18 -198.022 1566.65 -214.04 1626.44L-238.317 1717.04C-254.336 1776.82 -218.859 1838.27 -159.078 1854.29L-68.4729 1878.56C-8.15841 1894.73 27.6349 1956.72 11.4737 2017.04L-12.8038 2107.64C-28.8221 2167.42 6.65457 2228.87 66.4356 2244.89L157.041 2269.17C216.822 2285.18 278.269 2249.71 294.287 2189.93L318.565 2099.32C334.726 2039.01 396.722 2003.21 457.036 2019.37L547.641 2043.65C607.422 2059.67 668.87 2024.19 684.888 1964.41L709.166 1873.81C725.184 1814.03 689.707 1752.58 629.926 1736.56L539.321 1712.28C479.007 1696.12 443.213 1634.13 459.375 1573.81L483.652 1483.21C499.67 1423.43 464.194 1361.98 404.413 1345.96Z" stroke="#FB3EE2"/>
<path opacity="0.6" d="M424.746 1381.18L334.141 1356.9C274.36 1340.88 212.912 1376.36 196.894 1436.14L172.617 1526.74C156.455 1587.06 94.4596 1622.85 34.1451 1606.69L-56.4599 1582.41C-116.241 1566.4 -177.688 1601.87 -193.707 1661.65L-217.984 1752.26C-234.002 1812.04 -198.526 1873.49 -138.745 1889.51L-48.1398 1913.78C12.1747 1929.94 47.968 1991.94 31.8068 2052.25L7.52929 2142.86C-8.48902 2202.64 26.9877 2264.09 86.7687 2280.11L177.374 2304.38C237.155 2320.4 298.602 2284.92 314.621 2225.14L338.898 2134.54C355.059 2074.22 417.055 2038.43 477.369 2054.59L567.975 2078.87C627.756 2094.89 689.203 2059.41 705.221 1999.63L729.499 1909.03C745.517 1849.24 710.04 1787.8 650.259 1771.78L559.654 1747.5C499.34 1731.34 463.547 1669.34 479.708 1609.03L503.985 1518.42C520.004 1458.64 484.527 1397.2 424.746 1381.18Z" stroke="#FB3EE2"/>
<path opacity="0.5" d="M445.079 1416.4L354.474 1392.12C294.693 1376.1 233.245 1411.58 217.227 1471.36L192.95 1561.96C176.788 1622.28 114.793 1658.07 54.4782 1641.91L-36.1268 1617.63C-95.9078 1601.61 -157.355 1637.09 -173.374 1696.87L-197.651 1787.48C-213.669 1847.26 -178.193 1908.7 -118.412 1924.72L-27.8067 1949C32.5078 1965.16 68.3011 2027.16 52.1399 2087.47L27.8624 2178.08C11.844 2237.86 47.3208 2299.31 107.102 2315.32L197.707 2339.6C257.488 2355.62 318.935 2320.14 334.954 2260.36L359.231 2169.76C375.392 2109.44 437.388 2073.65 497.703 2089.81L588.308 2114.09C648.089 2130.11 709.536 2094.63 725.554 2034.85L749.832 1944.24C765.85 1884.46 730.373 1823.02 670.592 1807L579.987 1782.72C519.673 1766.56 483.88 1704.56 500.041 1644.25L524.318 1553.64C540.337 1493.86 504.86 1432.41 445.079 1416.4Z" stroke="#FB3EE2"/>
<path opacity="0.4" d="M465.412 1451.61L374.807 1427.34C315.026 1411.32 253.579 1446.79 237.56 1506.58L213.283 1597.18C197.122 1657.5 135.126 1693.29 74.8113 1677.13L-15.7937 1652.85C-75.5747 1636.83 -137.022 1672.31 -153.04 1732.09L-177.318 1822.69C-193.336 1882.48 -157.86 1943.92 -98.0786 1959.94L-7.47356 1984.22C52.8409 2000.38 88.6342 2062.38 72.473 2122.69L48.1955 2213.3C32.1772 2273.08 67.6539 2334.52 127.435 2350.54L218.04 2374.82C277.821 2390.84 339.268 2355.36 355.287 2295.58L379.564 2204.97C395.725 2144.66 457.721 2108.87 518.036 2125.03L608.641 2149.31C668.422 2165.32 729.869 2129.85 745.887 2070.07L770.165 1979.46C786.183 1919.68 750.707 1858.23 690.926 1842.21L600.321 1817.94C540.006 1801.78 504.213 1739.78 520.374 1679.47L544.652 1588.86C560.67 1529.08 525.193 1467.63 465.412 1451.61Z" stroke="#FB3EE2"/>
<path opacity="0.3" d="M485.745 1486.83L395.14 1462.55C335.359 1446.54 273.912 1482.01 257.893 1541.79L233.616 1632.4C217.455 1692.71 155.459 1728.51 95.1444 1712.35L4.53937 1688.07C-55.2416 1672.05 -116.689 1707.53 -132.707 1767.31L-156.985 1857.91C-173.003 1917.69 -137.527 1979.14 -77.7455 1995.16L12.8595 2019.44C73.174 2035.6 108.967 2097.59 92.8061 2157.91L68.5286 2248.51C52.5102 2308.29 87.987 2369.74 147.768 2385.76L238.373 2410.04C298.154 2426.06 359.601 2390.58 375.62 2330.8L399.897 2240.19C416.059 2179.88 478.054 2144.09 538.369 2160.25L628.974 2184.52C688.755 2200.54 750.202 2165.07 766.221 2105.28L790.498 2014.68C806.516 1954.9 771.04 1893.45 711.259 1877.43L620.654 1853.16C560.339 1836.99 524.546 1775 540.707 1714.68L564.985 1624.08C581.003 1564.3 545.526 1502.85 485.745 1486.83Z" stroke="#FB3EE2"/>
<path opacity="0.2" d="M513.078 1635.05L422.473 1610.77C362.692 1594.75 301.245 1630.23 285.226 1690.01L260.949 1780.62C244.788 1840.93 182.792 1876.72 122.477 1860.56L31.8724 1836.29C-27.9086 1820.27 -89.3561 1855.74 -105.374 1915.53L-129.652 2006.13C-145.67 2065.91 -110.193 2127.36 -50.4124 2143.38L40.1926 2167.65C100.507 2183.82 136.3 2245.81 120.139 2306.13L95.8616 2396.73C79.8433 2456.51 115.32 2517.96 175.101 2533.98L265.706 2558.26C325.487 2574.27 386.935 2538.8 402.953 2479.02L427.23 2388.41C443.392 2328.1 505.387 2292.3 565.702 2308.46L656.307 2332.74C716.088 2348.76 777.535 2313.28 793.554 2253.5L817.831 2162.9C833.849 2103.12 798.373 2041.67 738.592 2025.65L647.987 2001.37C587.672 1985.21 551.879 1923.22 568.04 1862.9L592.318 1772.3C608.336 1712.52 572.859 1651.07 513.078 1635.05Z" stroke="#FB3EE2"/>
</g>
<g opacity="0.9">
<path d="M1538.41 2384.96L1447.81 2360.68C1388.03 2344.66 1326.58 2380.14 1310.56 2439.92L1286.28 2530.53C1270.12 2590.84 1208.13 2626.63 1147.81 2610.47L1057.21 2586.2C997.426 2570.18 935.979 2605.65 919.96 2665.44L895.683 2756.04C879.664 2815.82 915.141 2877.27 974.922 2893.29L1065.53 2917.56C1125.84 2933.73 1161.63 2995.72 1145.47 3056.04L1121.2 3146.64C1105.18 3206.42 1140.65 3267.87 1200.44 3283.89L1291.04 3308.17C1350.82 3324.18 1412.27 3288.71 1428.29 3228.93L1452.56 3138.32C1468.73 3078.01 1530.72 3042.21 1591.04 3058.37L1681.64 3082.65C1741.42 3098.67 1802.87 3063.19 1818.89 3003.41L1843.17 2912.81C1859.18 2853.03 1823.71 2791.58 1763.93 2775.56L1673.32 2751.28C1613.01 2735.12 1577.21 2673.13 1593.37 2612.81L1617.65 2522.21C1633.67 2462.43 1598.19 2400.98 1538.41 2384.96Z" stroke="#FB3EE2"/>
<path opacity="0.6" d="M1558.75 2420.18L1468.14 2395.9C1408.36 2379.88 1346.91 2415.36 1330.89 2475.14L1306.62 2565.74C1290.46 2626.06 1228.46 2661.85 1168.15 2645.69L1077.54 2621.41C1017.76 2605.4 956.312 2640.87 940.293 2700.65L916.016 2791.26C899.997 2851.04 935.474 2912.49 995.255 2928.5L1085.86 2952.78C1146.17 2968.94 1181.97 3030.94 1165.81 3091.25L1141.53 3181.86C1125.51 3241.64 1160.99 3303.09 1220.77 3319.11L1311.37 3343.38C1371.15 3359.4 1432.6 3323.92 1448.62 3264.14L1472.9 3173.54C1489.06 3113.22 1551.05 3077.43 1611.37 3093.59L1701.97 3117.87C1761.76 3133.89 1823.2 3098.41 1839.22 3038.63L1863.5 2948.03C1879.52 2888.24 1844.04 2826.8 1784.26 2810.78L1693.65 2786.5C1633.34 2770.34 1597.55 2708.34 1613.71 2648.03L1637.99 2557.42C1654 2497.64 1618.53 2436.2 1558.75 2420.18Z" stroke="#FB3EE2"/>
<path opacity="0.5" d="M1579.08 2455.4L1488.47 2431.12C1428.69 2415.1 1367.25 2450.58 1351.23 2510.36L1326.95 2600.96C1310.79 2661.28 1248.79 2697.07 1188.48 2680.91L1097.87 2656.63C1038.09 2640.61 976.645 2676.09 960.626 2735.87L936.349 2826.48C920.331 2886.26 955.807 2947.7 1015.59 2963.72L1106.19 2988C1166.51 3004.16 1202.3 3066.16 1186.14 3126.47L1161.86 3217.08C1145.84 3276.86 1181.32 3338.31 1241.1 3354.32L1331.71 3378.6C1391.49 3394.62 1452.94 3359.14 1468.95 3299.36L1493.23 3208.76C1509.39 3148.44 1571.39 3112.65 1631.7 3128.81L1722.31 3153.09C1782.09 3169.11 1843.54 3133.63 1859.55 3073.85L1883.83 2983.24C1899.85 2923.46 1864.37 2862.02 1804.59 2846L1713.99 2821.72C1653.67 2805.56 1617.88 2743.56 1634.04 2683.25L1658.32 2592.64C1674.34 2532.86 1638.86 2471.41 1579.08 2455.4Z" stroke="#FB3EE2"/>
<path opacity="0.4" d="M1599.41 2490.61L1508.81 2466.34C1449.03 2450.32 1387.58 2485.79 1371.56 2545.58L1347.28 2636.18C1331.12 2696.5 1269.13 2732.29 1208.81 2716.13L1118.21 2691.85C1058.43 2675.83 996.978 2711.31 980.96 2771.09L956.682 2861.69C940.664 2921.48 976.14 2982.92 1035.92 2998.94L1126.53 3023.22C1186.84 3039.38 1222.63 3101.38 1206.47 3161.69L1182.2 3252.3C1166.18 3312.08 1201.65 3373.52 1261.43 3389.54L1352.04 3413.82C1411.82 3429.84 1473.27 3394.36 1489.29 3334.58L1513.56 3243.97C1529.73 3183.66 1591.72 3147.87 1652.04 3164.03L1742.64 3188.31C1802.42 3204.32 1863.87 3168.85 1879.89 3109.07L1904.17 3018.46C1920.18 2958.68 1884.71 2897.23 1824.93 2881.21L1734.32 2856.94C1674.01 2840.78 1638.21 2778.78 1654.37 2718.47L1678.65 2627.86C1694.67 2568.08 1659.19 2506.63 1599.41 2490.61Z" stroke="#FB3EE2"/>
<path opacity="0.3" d="M1619.75 2525.83L1529.14 2501.55C1469.36 2485.54 1407.91 2521.01 1391.89 2580.79L1367.62 2671.4C1351.45 2731.71 1289.46 2767.51 1229.14 2751.35L1138.54 2727.07C1078.76 2711.05 1017.31 2746.53 1001.29 2806.31L977.015 2896.91C960.997 2956.69 996.473 3018.14 1056.25 3034.16L1146.86 3058.44C1207.17 3074.6 1242.97 3136.59 1226.81 3196.91L1202.53 3287.51C1186.51 3347.29 1221.99 3408.74 1281.77 3424.76L1372.37 3449.04C1432.15 3465.06 1493.6 3429.58 1509.62 3369.8L1533.9 3279.19C1550.06 3218.88 1612.05 3183.08 1672.37 3199.25L1762.97 3223.52C1822.75 3239.54 1884.2 3204.07 1900.22 3144.28L1924.5 3053.68C1940.52 2993.9 1905.04 2932.45 1845.26 2916.43L1754.65 2892.15C1694.34 2875.99 1658.55 2814 1674.71 2753.68L1698.98 2663.08C1715 2603.3 1679.53 2541.85 1619.75 2525.83Z" stroke="#FB3EE2"/>
<path opacity="0.2" d="M1647.08 2674.05L1556.47 2649.77C1496.69 2633.75 1435.24 2669.23 1419.23 2729.01L1394.95 2819.62C1378.79 2879.93 1316.79 2915.72 1256.48 2899.56L1165.87 2875.29C1106.09 2859.27 1044.64 2894.74 1028.63 2954.53L1004.35 3045.13C988.33 3104.91 1023.81 3166.36 1083.59 3182.38L1174.19 3206.65C1234.51 3222.82 1270.3 3284.81 1254.14 3345.13L1229.86 3435.73C1213.84 3495.51 1249.32 3556.96 1309.1 3572.98L1399.71 3597.26C1459.49 3613.27 1520.93 3577.8 1536.95 3518.02L1561.23 3427.41C1577.39 3367.1 1639.39 3331.3 1699.7 3347.46L1790.31 3371.74C1850.09 3387.76 1911.54 3352.28 1927.55 3292.5L1951.83 3201.9C1967.85 3142.12 1932.37 3080.67 1872.59 3064.65L1781.99 3040.37C1721.67 3024.21 1685.88 2962.22 1702.04 2901.9L1726.32 2811.3C1742.34 2751.52 1706.86 2690.07 1647.08 2674.05Z" stroke="#FB3EE2"/>
</g>
<g opacity="0.9">
<path d="M1575.41 -58.0399L1484.81 -82.3175C1425.03 -98.3358 1363.58 -62.8591 1347.56 -3.07805L1323.28 87.527C1307.12 147.841 1245.13 183.635 1184.81 167.474L1094.21 143.196C1034.43 127.178 972.978 162.654 956.96 222.435L932.683 313.04C916.664 372.821 952.141 434.269 1011.92 450.287L1102.53 474.565C1162.84 490.726 1198.63 552.722 1182.47 613.036L1158.2 703.641C1142.18 763.422 1177.65 824.87 1237.44 840.888L1328.04 865.166C1387.82 881.184 1449.27 845.707 1465.29 785.926L1489.56 695.321C1505.73 635.007 1567.72 599.213 1628.04 615.375L1718.64 639.652C1778.42 655.67 1839.87 620.194 1855.89 560.413L1880.17 469.808C1896.18 410.027 1860.71 348.579 1800.93 332.561L1710.32 308.283C1650.01 292.122 1614.21 230.126 1630.37 169.812L1654.65 79.2068C1670.67 19.4258 1635.19 -42.0217 1575.41 -58.0399Z" stroke="#FB3EE2"/>
<path opacity="0.6" d="M1595.75 -22.822L1505.14 -47.0996C1445.36 -63.1179 1383.91 -27.6412 1367.89 32.1398L1343.62 122.745C1327.46 183.059 1265.46 218.853 1205.15 202.691L1114.54 178.414C1054.76 162.396 993.312 197.872 977.293 257.653L953.016 348.258C936.997 408.039 972.474 469.487 1032.26 485.505L1122.86 509.783C1183.17 525.944 1218.97 587.94 1202.81 648.254L1178.53 738.859C1162.51 798.64 1197.99 860.088 1257.77 876.106L1348.37 900.383C1408.15 916.402 1469.6 880.925 1485.62 821.144L1509.9 730.539C1526.06 670.224 1588.05 634.431 1648.37 650.592L1738.97 674.87C1798.76 690.888 1860.2 655.412 1876.22 595.631L1900.5 505.025C1916.52 445.244 1881.04 383.797 1821.26 367.779L1730.65 343.501C1670.34 327.34 1634.55 265.344 1650.71 205.03L1674.99 114.425C1691 54.6437 1655.53 -6.80377 1595.75 -22.822Z" stroke="#FB3EE2"/>
<path opacity="0.5" d="M1616.08 12.3959L1525.47 -11.8816C1465.69 -27.8999 1404.25 7.5768 1388.23 67.3578L1363.95 157.963C1347.79 218.277 1285.79 254.071 1225.48 237.909L1134.87 213.632C1075.09 197.614 1013.64 233.09 997.626 292.871L973.349 383.476C957.33 443.257 992.807 504.705 1052.59 520.723L1143.19 545.001C1203.51 561.162 1239.3 623.158 1223.14 683.472L1198.86 774.077C1182.84 833.858 1218.32 895.306 1278.1 911.324L1368.71 935.601C1428.49 951.62 1489.94 916.143 1505.95 856.362L1530.23 765.757C1546.39 705.442 1608.39 669.649 1668.7 685.81L1759.31 710.088C1819.09 726.106 1880.54 690.629 1896.55 630.848L1920.83 540.243C1936.85 480.462 1901.37 419.015 1841.59 402.997L1750.99 378.719C1690.67 362.558 1654.88 300.562 1671.04 240.248L1695.32 149.643C1711.34 89.8616 1675.86 28.4142 1616.08 12.3959Z" stroke="#FB3EE2"/>
<path opacity="0.4" d="M1636.41 47.6138L1545.81 23.3363C1486.03 7.318 1424.58 42.7947 1408.56 102.576L1384.28 193.181C1368.12 253.495 1306.13 289.288 1245.81 273.127L1155.21 248.85C1095.43 232.831 1033.98 268.308 1017.96 328.089L993.682 418.694C977.664 478.475 1013.14 539.923 1072.92 555.941L1163.53 580.219C1223.84 596.38 1259.63 658.376 1243.47 718.69L1219.2 809.295C1203.18 869.076 1238.65 930.523 1298.43 946.542L1389.04 970.819C1448.82 986.838 1510.27 951.361 1526.29 891.58L1550.56 800.975C1566.73 740.66 1628.72 704.867 1689.04 721.028L1779.64 745.306C1839.42 761.324 1900.87 725.847 1916.89 666.066L1941.17 575.461C1957.18 515.68 1921.71 454.233 1861.93 438.215L1771.32 413.937C1711.01 397.776 1675.21 335.78 1691.37 275.466L1715.65 184.861C1731.67 125.08 1696.19 63.6321 1636.41 47.6138Z" stroke="#FB3EE2"/>
<path opacity="0.3" d="M1656.75 82.8318L1566.14 58.5542C1506.36 42.536 1444.91 78.0127 1428.89 137.794L1404.62 228.399C1388.45 288.713 1326.46 324.506 1266.14 308.345L1175.54 284.068C1115.76 268.049 1054.31 303.526 1038.29 363.307L1014.02 453.912C997.997 513.693 1033.47 575.141 1093.25 591.159L1183.86 615.436C1244.17 631.598 1279.97 693.594 1263.81 753.908L1239.53 844.513C1223.51 904.294 1258.99 965.741 1318.77 981.76L1409.37 1006.04C1469.15 1022.06 1530.6 986.579 1546.62 926.798L1570.9 836.193C1587.06 775.878 1649.05 740.085 1709.37 756.246L1799.97 780.524C1859.75 796.542 1921.2 761.065 1937.22 701.284L1961.5 610.679C1977.52 550.898 1942.04 489.451 1882.26 473.433L1791.65 449.155C1731.34 432.994 1695.55 370.998 1711.71 310.684L1735.98 220.079C1752 160.298 1716.53 98.85 1656.75 82.8318Z" stroke="#FB3EE2"/>
<path opacity="0.2" d="M1677.08 118.05L1586.47 93.7722C1526.69 77.7539 1465.24 113.231 1449.23 173.012L1424.95 263.617C1408.79 323.931 1346.79 359.724 1286.48 343.563L1195.87 319.286C1136.09 303.267 1074.64 338.744 1058.63 398.525L1034.35 489.13C1018.33 548.911 1053.81 610.359 1113.59 626.377L1204.19 650.654C1264.51 666.816 1300.3 728.811 1284.14 789.126L1259.86 879.731C1243.84 939.512 1279.32 1000.96 1339.1 1016.98L1429.71 1041.26C1489.49 1057.27 1550.93 1021.8 1566.95 962.016L1591.23 871.411C1607.39 811.096 1669.39 775.303 1729.7 791.464L1820.31 815.742C1880.09 831.76 1941.54 796.283 1957.55 736.502L1981.83 645.897C1997.85 586.116 1962.37 524.669 1902.59 508.651L1811.99 484.373C1751.67 468.212 1715.88 406.216 1732.04 345.902L1756.32 255.296C1772.34 195.515 1736.86 134.068 1677.08 118.05Z" stroke="#FB3EE2"/>
</g>
<g opacity="0.9">
<path d="M-2.92451 12.0893L56.8496 -3.92711C96.1976 -14.4704 136.643 8.88049 147.186 48.2285L163.202 108.003C173.888 147.884 214.882 171.552 254.763 160.865L314.537 144.849C353.885 134.306 394.33 157.657 404.874 197.005L420.89 256.779C431.433 296.127 408.082 336.572 368.734 347.115L308.96 363.131C269.079 373.818 245.411 414.811 256.097 454.692L272.114 514.466C282.657 553.815 259.306 594.259 219.958 604.803L160.184 620.819C120.836 631.362 80.3912 608.012 69.8479 568.663L53.8315 508.889C43.1453 469.008 2.15203 445.34 -37.7295 456.027L-97.5036 472.043C-136.852 482.586 -177.297 459.235 -187.84 419.887L-203.856 360.113C-214.4 320.765 -191.049 280.32 -151.701 269.777L-91.9265 253.761C-52.045 243.074 -28.3775 202.081 -39.0637 162.2L-55.0802 102.426C-65.6234 63.0775 -42.2726 22.6326 -2.92451 12.0893Z" stroke="#9317FF"/>
<path opacity="0.6" d="M-16.3387 35.3233L43.4354 19.3069C82.7835 8.76361 123.228 32.1145 133.772 71.4625L149.788 131.237C160.474 171.118 201.468 194.786 241.349 184.099L301.123 168.083C340.471 157.54 380.916 180.891 391.459 220.239L407.476 280.013C418.019 319.361 394.668 359.806 355.32 370.349L295.546 386.365C255.665 397.052 231.997 438.045 242.683 477.926L258.7 537.7C269.243 577.049 245.892 617.493 206.544 628.037L146.77 644.053C107.422 654.596 66.977 631.246 56.4337 591.897L40.4173 532.123C29.7311 492.242 -11.2621 468.574 -51.1437 479.261L-110.918 495.277C-150.266 505.82 -190.711 482.469 -201.254 443.121L-217.27 383.347C-227.814 343.999 -204.463 303.554 -165.115 293.011L-105.341 276.995C-65.4592 266.308 -41.7917 225.315 -52.4779 185.434L-68.4943 125.66C-79.0376 86.3115 -55.6867 45.8666 -16.3387 35.3233Z" stroke="#9317FF"/>
<path opacity="0.5" d="M-29.7528 58.5574L30.0212 42.5409C69.3693 31.9977 109.814 55.3485 120.357 94.6966L136.374 154.471C147.06 194.352 188.053 218.02 227.935 207.333L287.709 191.317C327.057 180.774 367.502 204.125 378.045 243.473L394.062 303.247C404.605 342.595 381.254 383.04 341.906 393.583L282.132 409.599C242.25 420.286 218.583 461.279 229.269 501.16L245.286 560.935C255.829 600.283 232.478 640.727 193.13 651.271L133.356 667.287C94.0078 677.83 53.5629 654.48 43.0196 615.132L27.0031 555.357C16.3169 515.476 -24.6763 491.808 -64.5578 502.495L-124.332 518.511C-163.68 529.054 -204.125 505.703 -214.668 466.355L-230.685 406.581C-241.228 367.233 -217.877 326.788 -178.529 316.245L-118.755 300.229C-78.8733 289.542 -55.2059 248.549 -65.8921 208.668L-81.9085 148.894C-92.4518 109.546 -69.1009 69.1006 -29.7528 58.5574Z" stroke="#9317FF"/>
<path opacity="0.4" d="M-43.167 81.7914L16.6071 65.7749C55.9551 55.2317 96.4 78.5826 106.943 117.931L122.96 177.705C133.646 217.586 174.639 241.254 214.521 230.567L274.295 214.551C313.643 204.008 354.088 227.359 364.631 266.707L380.647 326.481C391.191 365.829 367.84 406.274 328.492 416.817L268.718 432.833C228.836 443.52 205.169 484.513 215.855 524.394L231.871 584.169C242.415 623.517 219.064 663.961 179.716 674.505L119.942 690.521C80.5936 701.064 40.1487 677.714 29.6054 638.366L13.5889 578.591C2.90274 538.71 -38.0905 515.042 -77.972 525.729L-137.746 541.745C-177.094 552.288 -217.539 528.937 -228.082 489.589L-244.099 429.815C-254.642 390.467 -231.291 350.022 -191.943 339.479L-132.169 323.463C-92.2875 312.776 -68.6201 271.783 -79.3063 231.902L-95.3227 172.128C-105.866 132.78 -82.5151 92.3346 -43.167 81.7914Z" stroke="#9317FF"/>
<path opacity="0.3" d="M-56.5812 105.025L3.19288 89.009C42.5409 78.4657 82.9859 101.817 93.5291 141.165L109.546 200.939C120.232 240.82 161.225 264.488 201.107 253.801L260.881 237.785C300.229 227.242 340.674 250.593 351.217 289.941L367.233 349.715C377.777 389.063 354.426 429.508 315.078 440.051L255.304 456.067C215.422 466.754 191.755 507.747 202.441 547.628L218.457 607.403C229 646.751 205.65 687.196 166.302 697.739L106.527 713.755C67.1794 724.299 26.7345 700.948 16.1912 661.6L0.174751 601.825C-10.5114 561.944 -51.5047 538.277 -91.3862 548.963L-151.16 564.979C-190.508 575.522 -230.953 552.172 -241.497 512.823L-257.513 453.049C-268.056 413.701 -244.705 373.256 -205.357 362.713L-145.583 346.697C-105.702 336.011 -82.0342 295.017 -92.7204 255.136L-108.737 195.362C-119.28 156.014 -95.9293 115.569 -56.5812 105.025Z" stroke="#9317FF"/>
<path opacity="0.2" d="M-69.9954 128.259L-10.2213 112.243C29.1268 101.7 69.5717 125.051 80.115 164.399L96.1314 224.173C106.818 264.054 147.811 287.722 187.692 277.036L247.466 261.019C286.815 250.476 327.259 273.827 337.803 313.175L353.819 372.949C364.362 412.297 341.012 452.742 301.663 463.285L241.889 479.302C202.008 489.988 178.34 530.981 189.027 570.863L205.043 630.637C215.586 669.985 192.235 710.43 152.887 720.973L93.1133 736.989C53.7653 747.533 13.3203 724.182 2.77704 684.834L-13.2394 625.06C-23.9256 585.178 -64.9188 561.511 -104.8 572.197L-164.574 588.213C-203.922 598.756 -244.367 575.406 -254.911 536.058L-270.927 476.283C-281.47 436.935 -258.12 396.49 -218.771 385.947L-158.997 369.931C-119.116 359.245 -95.4484 318.251 -106.135 278.37L-122.151 218.596C-132.694 179.248 -109.343 138.803 -69.9954 128.259Z" stroke="#9317FF"/>
</g>
</g>
</svg>
