<svg width="137" height="135" viewBox="0 0 137 135" fill="none" xmlns="http://www.w3.org/2000/svg">
<path d="M122.901 40.8936C141.006 50.5708 141.835 76.1406 124.392 86.9193L56.7125 128.742C39.2698 139.521 16.6383 127.424 15.9757 106.968L13.4049 27.5975C12.7423 7.14162 34.5456 -6.33175 52.6509 3.34537L122.901 40.8936Z" fill="#FD1A5E"/>
<path d="M110.729 30.4426C130.216 36.8988 135.382 61.955 120.027 75.5439L60.4488 128.27C45.0939 141.859 20.7345 133.789 16.6017 113.744L0.566312 35.9671C-3.56642 15.9221 15.6272 -1.06395 35.1147 5.39218L110.729 30.4426Z" fill="#9317FF"/>
<path d="M85.7395 51.4314L53.4642 83.7067C53.2774 83.8937 53.0556 84.042 52.8115 84.1432C52.5674 84.2444 52.3057 84.2965 52.0415 84.2965C51.7772 84.2965 51.5155 84.2444 51.2714 84.1432C51.0273 84.042 50.8055 83.8937 50.6187 83.7067L32.621 65.6084C32.2441 65.2313 32.0325 64.72 32.0325 64.1869C32.0325 63.6538 32.2441 63.1426 32.621 62.7655L38.6537 56.7327C38.8405 56.5457 39.0623 56.3974 39.3064 56.2962C39.5505 56.195 39.8122 56.1429 40.0765 56.1429C40.3407 56.1429 40.6024 56.195 40.8465 56.2962C41.0907 56.3974 41.3124 56.5457 41.4992 56.7327L50.7193 65.6109C50.906 65.7979 51.1278 65.9462 51.3719 66.0474C51.6161 66.1486 51.8777 66.2007 52.142 66.2007C52.4063 66.2007 52.6679 66.1486 52.9121 66.0474C53.1562 65.9462 53.378 65.7979 53.5647 65.6109L76.8613 42.6563C77.048 42.4693 77.2698 42.321 77.5139 42.2198C77.758 42.1186 78.0197 42.0665 78.284 42.0665C78.5482 42.0665 78.8099 42.1186 79.054 42.2198C79.2982 42.321 79.5199 42.4693 79.7067 42.6563L85.7395 48.5885C86.1163 48.9656 86.328 49.4768 86.328 50.0099C86.328 50.543 86.1163 51.0543 85.7395 51.4314Z" fill="white"/>
<path d="M87.1521 47.1532L81.1194 41.231C80.3656 40.4804 79.3452 40.059 78.2815 40.059C77.2177 40.059 76.1973 40.4804 75.4435 41.231L52.142 64.1857L52.1143 64.158L42.9043 55.2924C42.1487 54.5445 41.1277 54.1263 40.0645 54.1291C39.0014 54.132 37.9827 54.5556 37.231 55.3075L31.1982 61.3402C30.4453 62.0943 30.0225 63.1163 30.0225 64.1819C30.0225 65.2475 30.4453 66.2695 31.1982 67.0236L49.201 85.1219C49.5745 85.4954 50.0179 85.7918 50.5059 85.994C50.9939 86.1961 51.517 86.3002 52.0452 86.3002C52.5734 86.3002 53.0965 86.1961 53.5845 85.994C54.0725 85.7918 54.5159 85.4954 54.8894 85.1219L87.1647 52.8516C87.5389 52.4771 87.8356 52.0325 88.0376 51.5431C88.2395 51.0537 88.3429 50.5292 88.3418 49.9998C88.3406 49.4704 88.2349 48.9464 88.0308 48.4579C87.8266 47.9694 87.528 47.526 87.1521 47.1532ZM52.0465 82.284L34.0437 64.1857L40.0765 58.1529L40.1041 58.1806L49.3141 67.0462C50.0672 67.7922 51.0844 68.2108 52.1445 68.2108C53.2046 68.2108 54.2218 67.7922 54.9749 67.0462L78.299 44.0765L84.3167 50.0087L52.0465 82.284Z" fill="white"/>
</svg>
