<svg width="345" height="296" viewBox="0 0 345 296" fill="none" xmlns="http://www.w3.org/2000/svg">
<path opacity="0.2" d="M223.057 26.0258C242.909 22.1951 263.296 29.252 276.537 44.5383L331.172 107.61C344.414 122.896 348.499 144.09 341.889 163.207L314.615 242.084C308.005 261.201 291.704 275.338 271.852 279.168L189.943 294.974C170.091 298.805 149.704 291.748 136.463 276.462L81.8276 213.39C68.586 198.104 64.5009 176.91 71.1111 157.793L98.3849 78.9159C104.995 59.7989 121.296 45.6624 141.148 41.8317L223.057 26.0258Z" fill="#9317FF"/>
<path opacity="0.2" d="M46.4612 41.3066C52.4096 40.1616 58.5182 42.2709 62.4859 46.8398L78.8567 65.6915C82.8244 70.2605 84.0485 76.595 82.0678 82.309L73.8955 105.885C71.9148 111.599 67.0303 115.824 61.082 116.969L36.5388 121.693C30.5904 122.838 24.4818 120.729 20.5141 116.16L4.14329 97.3085C0.175581 92.7395 -1.04848 86.405 0.932192 80.691L9.1045 57.1151C11.0852 51.4011 15.9697 47.1759 21.9181 46.0309L46.4612 41.3066Z" fill="#FB3EE2"/>
<path opacity="0.2" d="M92.668 0.193054C96.4664 -0.527865 100.367 0.800185 102.901 3.67694L113.354 15.5465C115.888 18.4233 116.67 22.4117 115.405 26.0094L110.186 40.8535C108.922 44.4511 105.802 47.1115 102.004 47.8324L86.332 50.8069C82.5336 51.5279 78.633 50.1998 76.0994 47.3231L65.6457 35.4535C63.1121 32.5767 62.3305 28.5883 63.5953 24.9906L68.8137 10.1465C70.0785 6.54887 73.1975 3.8885 76.9959 3.16759L92.668 0.193054Z" fill="#FD1A5E"/>
</svg>
