<svg width="128" height="165" viewBox="0 0 128 165" fill="none" xmlns="http://www.w3.org/2000/svg">
<path d="M80.0381 130.979C77.3206 128.262 77.3206 123.856 80.0381 121.138L84.1384 117.038C86.8559 114.321 91.2618 114.321 93.9793 117.038L98.0796 121.138C100.797 123.856 105.203 123.856 107.92 121.138L112.021 117.038C114.738 114.321 119.144 114.321 121.862 117.038L125.962 121.138C128.679 123.856 128.679 128.262 125.962 130.979L121.862 135.08C119.144 137.797 119.144 142.203 121.862 144.92L125.962 149.021C128.679 151.738 128.679 156.144 125.962 158.862L121.862 162.962C119.144 165.679 114.738 165.679 112.021 162.962L107.92 158.862C105.203 156.144 100.797 156.144 98.0796 158.862L93.9793 162.962C91.2618 165.679 86.8559 165.679 84.1384 162.962L80.0381 158.862C77.3206 156.144 77.3206 151.738 80.0381 149.021L84.1384 144.92C86.8559 142.203 86.8559 137.797 84.1384 135.08L80.0381 130.979Z" fill="#FB3EE2"/>
<path d="M26.2392 33.2368C20.5869 27.5845 20.5869 18.4203 26.2392 12.768L34.768 4.23925C40.4203 -1.41308 49.5845 -1.41308 55.2368 4.23925L63.7656 12.768C69.4179 18.4203 78.5821 18.4203 84.2344 12.768L92.7632 4.23925C98.4155 -1.41308 107.58 -1.41308 113.232 4.23925L121.761 12.768C127.413 18.4203 127.413 27.5845 121.761 33.2368L113.232 41.7656C107.58 47.4179 107.58 56.5821 113.232 62.2345L121.761 70.7632C127.413 76.4155 127.413 85.5797 121.761 91.2321L113.232 99.7608C107.58 105.413 98.4155 105.413 92.7632 99.7608L84.2344 91.2321C78.5821 85.5797 69.4179 85.5797 63.7656 91.2321L55.2368 99.7608C49.5845 105.413 40.4203 105.413 34.768 99.7608L26.2392 91.2321C20.5869 85.5797 20.5869 76.4155 26.2392 70.7632L34.768 62.2345C40.4203 56.5821 40.4203 47.4179 34.768 41.7656L26.2392 33.2368Z" fill="#9317FF"/>
<path d="M4.92893 85.1421C1.02369 81.2369 1.02369 74.9052 4.92893 71L12 63.9289C15.9052 60.0237 22.2369 60.0237 26.1421 63.9289L33.2132 71C38.6805 76.4673 47.5448 76.4673 53.0122 71L60.0833 63.9289C63.9885 60.0237 70.3202 60.0237 74.2254 63.9289L81.2965 71C85.2017 74.9052 85.2017 81.2369 81.2965 85.1421L74.2254 92.2132C68.7581 97.6805 68.7581 106.545 74.2254 112.012L81.2965 119.083C85.2017 122.989 85.2017 129.32 81.2965 133.225L74.2254 140.296C70.3202 144.202 63.9885 144.202 60.0833 140.296L53.0122 133.225C47.5449 127.758 38.6805 127.758 33.2132 133.225L26.1421 140.296C22.2369 144.202 15.9052 144.202 12 140.296L4.92893 133.225C1.02369 129.32 1.02369 122.989 4.92893 119.083L12 112.012C17.4673 106.545 17.4673 97.6805 12 92.2132L4.92893 85.1421Z" stroke="#FD1A5E" stroke-width="4"/>
</svg>
